#!OML:ASF H:\Male1\Project 1\Capture day 1\Session 1\Male1.ASF
:FULLY-SPECIFIED
:DEGREES
420
root -11.2845 14.7057 -0.862885 833.599 -84.8659 239.308
lowerback 12.9506 1.77889 1.92833
upperback 7.39248 2.17784 0.290337
thorax 0.564174 0.980061 -1.04631
lowerneck -11.3081 4.91349 7.70999
upperneck 2.57003 6.0561 -10.3364
head 3.16447 2.65435 -4.02486
rclavicle 1.25234e-014 -3.18055e-015
rhumerus -50.2315 20.9443 -84.3039
rradius 108.333
rwrist -28.0987
rhand -30.8131 20.4146
rfingers 7.12502
rthumb -4.10267 -9.52565
lclavicle 1.25234e-014 -3.18055e-015
lhumerus -82.7658 3.00307 81.9761
lradius 90.2461
lwrist 25.6535
lhand -32.127 -3.48395
lfingers 7.12502
lthumb -5.37132 26.428
rfemur -4.39538 -2.29471 27.823
rtibia 74.4534
rfoot -11.2164 -19.4751
rtoes -23.0061
lfemur -28.3855 -13.4896 -12.4994
ltibia 26.5519
lfoot -9.68597 12.127
ltoes -18.9354
421
root -11.9145 14.6262 -0.843055 843.76 -84.9965 228.39
lowerback 13.7123 1.77117 1.15246
upperback 7.62142 2.05556 0.113421
thorax 0.370544 0.884214 -0.798288
lowerneck -10.9861 5.24052 8.0495
upperneck 2.26237 6.46986 -10.7148
head 3.08402 2.8597 -4.17359
rclavicle -2.68359e-015 5.96354e-015
rhumerus -50.238 20.7526 -85.0748
rradius 107.755
rwrist -27.452
rhand -31.1342 20.4093
rfingers 7.12502
rthumb -4.41269 -9.52473
lclavicle -2.68359e-015 5.96354e-015
lhumerus -82.1597 3.50008 82.056
lradius 90.0863
lwrist 26.4824
lhand -32.1611 -2.75092
lfingers 7.12502
lthumb -5.40424 27.1602
rfemur -7.46437 -2.80144 25.9248
rtibia 78.5223
rfoot -12.3252 -20.0272
rtoes -24.3417
lfemur -26.9952 -12.6457 -13.6697
ltibia 27.0294
lfoot -7.3387 11.7133
ltoes -19.7631
422
root -12.5215 14.5289 -0.827464 855.018 -85.29 216.375
lowerback 14.5908 1.75796 0.132782
upperback 7.84707 1.87852 -0.131012
thorax 0.110896 0.753246 -0.476369
lowerneck -10.6435 5.53008 8.37991
upperneck 1.86235 6.82815 -11.08
head 2.96965 3.04027 -4.32272
rclavicle -6.65929e-015 7.95139e-016
rhumerus -50.2922 20.3298 -85.8754
rradius 106.921
rwrist -26.5781
rhand -31.5678 20.4147
rfingers 7.12502
rthumb -4.83145 -9.51026
lclavicle -6.65929e-015 7.95139e-016
lhumerus -80.8688 3.34386 82.5236
lradius 89.6247
lwrist 27.3289
lhand -32.4195 -1.99654
lfingers 7.12502
lthumb -5.65381 27.908
rfemur -11.1226 -3.35953 23.927
rtibia 81.882
rfoot -13.0416 -19.7178
rtoes -25.874
lfemur -26.391 -10.8908 -15.5355
ltibia 29.8615
lfoot -5.34233 10.3388
ltoes -19.8627
423
root -13.1042 14.4191 -0.816144 865.793 -85.4849 204.886
lowerback 15.5051 1.74397 -0.762768
upperback 8.07662 1.69355 -0.364446
thorax -0.149812 0.621046 -0.208146
lowerneck -10.2831 5.74256 8.63895
upperneck 1.41587 7.0866 -11.3948
head 2.82667 3.17442 -4.45386
rclavicle -9.83984e-015 4.77083e-015
rhumerus -50.4112 19.6633 -86.7005
rradius 105.885
rwrist -25.7105
rhand -32.1946 20.223
rfingers 7.12502
rthumb -5.4366 -9.68725
lclavicle -9.83984e-015 4.77083e-015
lhumerus -78.8312 2.50262 83.2645
lradius 88.8427
lwrist 27.9623
lhand -32.6929 -1.21875
lfingers 7.12502
lthumb -5.91773 28.6786
rfemur -15.2415 -3.89201 22.3421
rtibia 84.2763
rfoot -13.7587 -19.1893
rtoes -26.3708
lfemur -26.3292 -8.87899 -17.408
ltibia 34.1265
lfoot -4.37194 8.55801
ltoes -18.7672
424
root -13.6661 14.3061 -0.808312 875.291 -85.5944 194.743
lowerback 16.3636 1.74056 -1.45321
upperback 8.30332 1.5355 -0.558827
thorax -0.370979 0.508022 -0.013723
lowerneck -9.9128 5.85545 8.78615
upperneck 1.04302 7.22871 -11.6549
head 2.68748 3.25241 -4.55901
rclavicle -1.49089e-014 -1.98785e-015
rhumerus -50.6146 18.8126 -87.5073
rradius 104.722
rwrist -25.1842
rhand -32.9921 19.8465
rfingers 7.12502
rthumb -6.20656 -10.0426
lclavicle -1.49089e-014 -1.98785e-015
lhumerus -76.208 1.06156 84.1308
lradius 87.8947
lwrist 28.0887
lhand -32.878 -0.438993
lfingers 7.12502
lthumb -6.09641 29.4533
rfemur -19.5665 -4.28962 21.2963
rtibia 85.4664
rfoot -14.4347 -19.1197
rtoes -26.2339
lfemur -26.432 -7.16176 -19.0578
ltibia 38.9046
lfoot -4.65865 7.01723
ltoes -16.5582
425
root -14.2114 14.2048 -0.803901 881.607 -85.5669 187.945
lowerback 17.0328 1.74356 -1.79277
upperback 8.49725 1.4392 -0.662115
thorax -0.517035 0.437225 0.0741481
lowerneck -9.5554 5.87548 8.81588
upperneck 0.809617 7.26807 -11.8755
head 2.57592 3.27892 -4.63927
rclavicle -6.26172e-015 -1.23246e-014
rhumerus -50.8768 17.8987 -88.2536
rradius 103.494
rwrist -25.2166
rhand -33.8888 19.2974
rfingers 7.12502
rthumb -7.07222 -10.5644
lclavicle -6.26172e-015 -1.23246e-014
lhumerus -73.2081 -0.764401 84.9421
lradius 86.9599
lwrist 27.4987
lhand -32.9753 0.183288
lfingers 7.12502
lthumb -6.19039 30.0728
rfemur -23.9029 -4.33335 20.9835
rtibia 85.2417
rfoot -15.234 -19.4388
rtoes -25.4024
lfemur -26.4404 -5.88962 -20.2616
ltibia 43.4838
lfoot -6.11086 6.01535
ltoes -13.3781
